# xmcd CD database file
#
# Track frame offsets:
#	150
#	20623
#	46692
#	60563
#	71235
#	87608
#	118699
#	144983
#	159718
#	168317
#	183697
#	204312
#	223379
#	250815
#	278335
#	291825
#	324023
#
# Disc length: 4706 seconds
#
# Revision: 0
# Processed by: cddbd v1.5.2PL0 Copyright (c) Steve Scherf et al.
# Submitted via: CDex 1.70beta2
#
DISCID=fc126011
DTITLE=Various Artist - Wujek - Warszawski Underground Jazzowy
DYEAR=2008
DGENRE=Jazz
TTITLE0=Batyskaf - Krzynówek
TTITLE1=Trifonidis - Bangrasacas
TTITLE2=Melancholia - Słoneczniki
TTITLE3=Meritum - Dziewitkowe Pe
TTITLE4=Pustki - Toto Lotek
TTITLE5=Wiosna - Prima Aprilis
TTITLE6=Elektrolot - Slow
TTITLE7=Batyskaf - Dum Dum
TTITLE8=Leonoff - Stefan Estrada
TTITLE9=Pustki - Królowa Marsa
TTITLE10=Ślimak Trio - Wprost przeciwnie
TTITLE11=Tifonidis - Juma
TTITLE12=Meritum - Cis
TTITLE13=Stworywodne.jaszczury - Taniec Drwali
TTITLE14=Elktrolot - Happy
TTITLE15=Ślimak Trio - Przygody Paczków Na Marsie
TTITLE16=Wiosna - Radio Earth
EXTD=YEAR: 2008
EXTT0=
EXTT1=
EXTT2=
EXTT3=
EXTT4=
EXTT5=
EXTT6=
EXTT7=
EXTT8=
EXTT9=
EXTT10=
EXTT11=
EXTT12=
EXTT13=
EXTT14=
EXTT15=
EXTT16=
PLAYORDER=
